<svg height="512pt" viewBox="0 0 512 512.05252" width="512pt" xmlns="http://www.w3.org/2000/svg"><path d="m494.371094 35.308594h-476.691406c-9.738282.03125-17.6250005 7.917968-17.6523442 17.65625v353.105468c.0273437 9.738282 7.9140622 17.625 17.6523442 17.652344h476.691406c9.738281-.027344 17.625-7.914062 17.65625-17.652344v-353.105468c-.03125-9.738282-7.917969-17.625-17.65625-17.65625zm0 0" fill="#35495e"/><path d="m238.371094 0h35.308594c9.753906 0 17.65625 7.90625 17.65625 17.65625v17.652344h-70.621094v-17.652344c0-9.75 7.90625-17.65625 17.65625-17.65625zm0 0" fill="#cb9080"/><path d="m212.257812 423.722656-27.894531 76.625c-3.503906 8.890625-13.445312 13.378906-22.429687 10.128906-8.988282-3.25-13.757813-13.058593-10.761719-22.132812l23.480469-64.621094zm0 0" fill="#7f5b53"/><path d="m337.417969 423.722656 23.480469 64.621094c2.160156 5.925781.992187 12.558594-3.0625 17.394531-4.054688 4.835938-10.378907 7.140625-16.59375 6.046875-6.214844-1.09375-11.375-5.421875-13.535157-11.347656l-27.894531-76.714844zm0 0" fill="#7f5b53"/><path d="m238.371094 423.722656h35.308594v70.621094c0 9.75-7.902344 17.65625-17.652344 17.65625s-17.65625-7.90625-17.65625-17.65625zm0 0" fill="#59474e"/><path d="m123.613281 220.691406h-79.449219c-4.875 0-8.828124-3.953125-8.828124-8.828125v-123.585937c0-4.875 3.953124-8.828125 8.828124-8.828125h123.585938c4.875 0 8.828125 3.953125 8.828125 8.828125v79.445312zm0 0" fill="#f3d55b"/><path d="m176.578125 167.722656h-44.136719c-4.875 0-8.828125 3.953125-8.828125 8.828125v44.140625zm0 0" fill="#f0c419"/><path d="m123.613281 79.449219c0 9.75-7.90625 17.652343-17.65625 17.652343s-17.65625-7.902343-17.65625-17.652343 7.90625-17.65625 17.65625-17.65625 17.65625 7.90625 17.65625 17.65625zm0 0" fill="#4482c3"/><path d="m423.75 423.722656h-79.449219c-4.875 0-8.828125-3.949218-8.828125-8.824218v-123.589844c0-4.875 3.953125-8.824219 8.828125-8.824219h123.585938c4.875 0 8.828125 3.949219 8.828125 8.824219v79.449218zm0 0" fill="#f3d55b"/><path d="m476.714844 370.757812h-44.136719c-4.875 0-8.828125 3.953126-8.828125 8.828126v44.136718zm0 0" fill="#f0c419"/><path d="m423.75 282.484375c0 9.75-7.902344 17.652344-17.65625 17.652344-9.75 0-17.652344-7.902344-17.652344-17.652344 0-9.753906 7.902344-17.65625 17.652344-17.65625 9.753906 0 17.65625 7.902344 17.65625 17.65625zm0 0" fill="#4482c3"/><path d="m162.578125 396.015625-74.65625 27.171875c-2.203125.796875-4.632813.691406-6.757813-.304688-2.121093-.992187-3.761718-2.789062-4.558593-4.992187l-42.265625-116.109375c-.800782-2.203125-.691406-4.636719.300781-6.757812.992187-2.125 2.789063-3.765626 4.996094-4.558594l41.488281-15.097656 33.183594-12.074219 41.488281-15.097657c2.203125-.800781 4.636719-.691406 6.757813.300782 2.121093.996094 3.761718 2.792968 4.558593 4.996094l27.121094 74.636718zm0 0" fill="#f0c419"/><path d="m194.234375 328.128906-41.492187 15.097656c-2.203126.796876-4 2.4375-4.992188 4.558594-.996094 2.125-1.105469 4.554688-.304688 6.757813l15.097657 41.488281zm0 0" fill="#f29c1f"/><path d="m114.265625 263.292969c3.332031 9.164062-1.390625 19.292969-10.554687 22.628906-9.160157 3.335937-19.292969-1.390625-22.628907-10.550781-3.332031-9.164063 1.390625-19.292969 10.554688-22.628906 9.160156-3.335938 19.292969 1.390624 22.628906 10.550781zm0 0" fill="#4482c3"/><path d="m325.585938 132.414062 14.390624-53.671874c.605469-2.269532 2.097657-4.199219 4.136719-5.359376 2.039063-1.160156 4.460938-1.457031 6.722657-.820312l42.636718 11.386719 34.066406 9.136719 42.636719 11.425781c2.261719.605469 4.1875 2.085937 5.359375 4.113281s1.488282 4.4375.878906 6.699219l-20.558593 76.738281-64.855469 37.453125-37.871094-10.148437zm0 0" fill="#f0c419"/><path d="m455.847656 192.0625-42.636718-11.421875c-2.261719-.609375-4.671876-.292969-6.699219.878906-2.027344 1.171875-3.507813 3.097657-4.117188 5.359375l-11.414062 42.636719zm0 0" fill="#f29c1f"/><path d="m415.054688 71.464844c9.417968 2.527344 15.007812 12.207031 12.484374 21.625-2.523437 9.417968-12.203124 15.007812-21.621093 12.484375-9.421875-2.523438-15.007813-12.207031-12.484375-21.625 2.523437-9.417969 12.203125-15.007813 21.621094-12.484375zm0 0" fill="#4482c3"/><path d="m300.164062 273.65625h-79.449218c-4.875 0-8.828125-3.953125-8.828125-8.828125v-123.585937c0-4.875 3.953125-8.828126 8.828125-8.828126h123.585937c4.875 0 8.828125 3.953126 8.828125 8.828126v79.449218zm0 0" fill="#f3d55b"/><path d="m353.128906 220.691406-52.964844 52.964844v-44.140625c0-4.875 3.953126-8.824219 8.828126-8.824219zm0 0" fill="#f0c419"/><path d="m300.164062 132.414062c0 9.75-7.90625 17.65625-17.65625 17.65625s-17.652343-7.90625-17.652343-17.65625 7.902343-17.65625 17.652343-17.65625 17.65625 7.90625 17.65625 17.65625zm0 0" fill="#4482c3"/></svg>