<svg height="512pt" viewBox="0 -9 512 512" width="512pt" xmlns="http://www.w3.org/2000/svg"><path d="m476.691406 423.722656v26.484375c0 24.375-19.761718 44.136719-44.140625 44.136719h-388.414062c-11.703125 0-22.929688-4.648438-31.210938-12.925781-8.277343-8.277344-12.925781-19.503907-12.925781-31.210938v-361.929687h282.484375zm0 0" fill="#f3d55b"/><path d="m0 414.898438c0-24.378907 19.761719-44.140626 44.136719-44.140626 24.378906 0 44.140625 19.761719 44.140625 44.140626v-353.105469c0-24.375-19.761719-44.136719-44.140625-44.136719-24.375 0-44.136719 19.761719-44.136719 44.136719zm0 0" fill="#f29c1f"/><path d="m150.070312 132.414062h132.414063v123.585938h-132.414063c-9.753906 0-17.65625-7.90625-17.65625-17.65625v-88.273438c0-9.753906 7.902344-17.65625 17.65625-17.65625zm0 0" fill="#ecf0f1"/><g fill="#802f34"><path d="m176.550781 308.964844h-44.136719c-4.875 0-8.828124-3.953125-8.828124-8.828125s3.953124-8.828125 8.828124-8.828125h44.136719c4.875 0 8.828125 3.953125 8.828125 8.828125s-3.953125 8.828125-8.828125 8.828125zm0 0"/><path d="m282.484375 308.964844h-61.792969c-4.878906 0-8.828125-3.953125-8.828125-8.828125s3.949219-8.828125 8.828125-8.828125h61.792969c4.875 0 8.824219 3.953125 8.824219 8.828125s-3.949219 8.828125-8.824219 8.828125zm0 0"/><path d="m282.484375 353.101562h-150.070313c-4.875 0-8.828124-3.949218-8.828124-8.824218s3.953124-8.828125 8.828124-8.828125h150.070313c4.875 0 8.824219 3.953125 8.824219 8.828125s-3.949219 8.824218-8.824219 8.824218zm0 0"/></g><path d="m282.484375 203.035156c-1.152344-.003906-2.292969-.230468-3.355469-.671875l-142.476562-58.703125c-4.511719-1.859375-6.660156-7.019531-4.804688-11.527344 1.859375-4.511718 7.019532-6.660156 11.53125-4.804687l142.476563 58.703125c3.914062 1.597656 6.148437 5.746094 5.324219 9.894531-.820313 4.144531-4.46875 7.128907-8.695313 7.109375zm0 0" fill="#bdc3c7"/><path d="m140.003906 261.738281c-4.214844.003907-7.847656-2.976562-8.667968-7.113281-.816407-4.136719 1.40625-8.277344 5.304687-9.878906l142.480469-58.703125c4.507812-1.859375 9.667968.289062 11.527344 4.800781 1.855468 4.507812-.292969 9.671875-4.800782 11.527344l-142.480468 58.703125c-1.066407.441406-2.207032.664062-3.363282.664062zm0 0" fill="#bdc3c7"/><path d="m317.792969 0h158.898437c19.5 0 35.308594 15.808594 35.308594 35.308594v353.105468c0 19.5-15.808594 35.308594-35.308594 35.308594h-158.898437c-19.5 0-35.308594-15.808594-35.308594-35.308594v-353.105468c0-19.5 15.808594-35.308594 35.308594-35.308594zm0 0" fill="#547580"/><path d="m414.898438 44.136719h-35.3125c-4.875 0-8.828126-3.949219-8.828126-8.828125 0-4.875 3.953126-8.824219 8.828126-8.824219h35.3125c4.875 0 8.824218 3.949219 8.824218 8.824219 0 4.878906-3.949218 8.828125-8.824218 8.828125zm0 0" fill="#2c3e50"/><path d="m282.484375 70.621094h229.515625v256h-229.515625zm0 0" fill="#35495e"/><path d="m388.414062 353.101562h17.65625c4.875 0 8.828126 3.953126 8.828126 8.828126v17.65625c0 4.875-3.953126 8.828124-8.828126 8.828124h-17.65625c-4.875 0-8.828124-3.953124-8.828124-8.828124v-17.65625c0-4.875 3.953124-8.828126 8.828124-8.828126zm0 0" fill="#2c3e50"/><path d="m326.621094 105.929688h141.242187c4.875 0 8.828125 3.953124 8.828125 8.828124v79.449219c0 4.875-3.953125 8.828125-8.828125 8.828125h-141.242187c-4.875 0-8.828125-3.953125-8.828125-8.828125v-79.449219c0-4.875 3.953125-8.828124 8.828125-8.828124zm0 0" fill="#b0d3f0"/><path d="m473.414062 209.832031c-1.617187 0-3.207031-.445312-4.589843-1.289062l-152.363281-93.042969c-4.109376-2.5625-5.382813-7.957031-2.863282-12.089844 2.523438-4.132812 7.902344-5.460937 12.0625-2.980468l152.363282 93.042968c3.378906 2.0625 4.976562 6.121094 3.902343 9.933594-1.070312 3.8125-4.550781 6.441406-8.511719 6.433594zm0 0" fill="#90bae1"/><path d="m321.066406 209.832031c-3.957031.007813-7.4375-2.625-8.511718-6.433593-1.070313-3.8125.523437-7.871094 3.90625-9.933594l152.363281-93.042969c4.15625-2.480469 9.539062-1.152344 12.058593 2.980469 2.523438 4.132812 1.246094 9.527344-2.859374 12.089844l-152.363282 93.042968c-1.382812.84375-2.972656 1.292969-4.59375 1.296875zm0 0" fill="#90bae1"/><path d="m361.929688 247.171875h-35.308594c-4.875 0-8.828125-3.953125-8.828125-8.828125s3.953125-8.828125 8.828125-8.828125h35.308594c4.875 0 8.828124 3.953125 8.828124 8.828125s-3.953124 8.828125-8.828124 8.828125zm0 0" fill="#547580"/><path d="m476.691406 247.171875h-79.449218c-4.875 0-8.828126-3.953125-8.828126-8.828125s3.953126-8.828125 8.828126-8.828125h79.449218c4.875 0 8.824219 3.953125 8.824219 8.828125s-3.949219 8.828125-8.824219 8.828125zm0 0" fill="#547580"/><path d="m476.691406 282.484375h-150.070312c-4.875 0-8.828125-3.953125-8.828125-8.828125s3.953125-8.828125 8.828125-8.828125h150.070312c4.875 0 8.824219 3.953125 8.824219 8.828125s-3.949219 8.828125-8.824219 8.828125zm0 0" fill="#547580"/></svg>